<svg xmlns="http://www.w3.org/2000/svg" xmlns:xlink="http://www.w3.org/1999/xlink" width="1080" zoomAndPan="magnify" viewBox="0 0 810 809.999993" height="1080" preserveAspectRatio="xMidYMid meet" version="1.0"><path fill="#d00b1e" d="M 338.460938 343.914062 C 318.851562 336.910156 297.554688 333.128906 275.421875 333.128906 C 170.917969 333.128906 86.316406 417.734375 86.316406 522.21875 C 86.316406 626.707031 170.929688 711.3125 275.421875 711.3125 C 379.914062 711.3125 464.527344 626.707031 464.527344 522.21875 C 464.527344 439.859375 411.996094 369.820312 338.449219 343.90625 Z M 275.429688 585.253906 C 240.554688 585.253906 212.390625 557.09375 212.390625 522.21875 C 212.390625 487.34375 240.554688 459.1875 275.429688 459.1875 C 310.308594 459.1875 338.46875 487.34375 338.46875 522.21875 C 338.46875 557.09375 310.308594 585.253906 275.429688 585.253906 Z M 275.429688 585.253906 " fill-opacity="1" fill-rule="nonzero"/><path fill="#d00b1e" d="M 330.4375 203.054688 C 330.4375 205.050781 330.390625 207.046875 330.292969 209.042969 C 330.195312 211.039062 330.046875 213.027344 329.851562 215.015625 C 329.65625 217.003906 329.410156 218.988281 329.117188 220.960938 C 328.824219 222.9375 328.484375 224.90625 328.09375 226.863281 C 327.703125 228.824219 327.265625 230.773438 326.78125 232.710938 C 326.296875 234.648438 325.761719 236.574219 325.183594 238.484375 C 324.601562 240.394531 323.976562 242.292969 323.304688 244.171875 C 322.628906 246.054688 321.910156 247.914062 321.148438 249.761719 C 320.382812 251.605469 319.574219 253.433594 318.71875 255.238281 C 317.867188 257.042969 316.96875 258.828125 316.027344 260.589844 C 315.085938 262.351562 314.101562 264.089844 313.074219 265.800781 C 312.046875 267.515625 310.976562 269.203125 309.867188 270.863281 C 308.757812 272.523438 307.609375 274.15625 306.417969 275.761719 C 305.226562 277.363281 304 278.9375 302.730469 280.484375 C 301.464844 282.027344 300.160156 283.539062 298.820312 285.019531 C 297.476562 286.5 296.101562 287.945312 294.6875 289.359375 C 293.273438 290.769531 291.828125 292.148438 290.347656 293.488281 C 288.867188 294.832031 287.355469 296.136719 285.8125 297.402344 C 284.269531 298.667969 282.695312 299.898438 281.089844 301.085938 C 279.484375 302.277344 277.851562 303.425781 276.191406 304.539062 C 274.53125 305.648438 272.84375 306.714844 271.128906 307.742188 C 269.414062 308.769531 267.679688 309.753906 265.917969 310.695312 C 264.15625 311.636719 262.371094 312.535156 260.566406 313.386719 C 258.757812 314.242188 256.933594 315.050781 255.089844 315.816406 C 253.242188 316.582031 251.378906 317.300781 249.5 317.972656 C 247.617188 318.644531 245.722656 319.273438 243.808594 319.851562 C 241.898438 320.429688 239.972656 320.964844 238.035156 321.449219 C 236.097656 321.933594 234.148438 322.371094 232.191406 322.761719 C 230.230469 323.152344 228.261719 323.492188 226.289062 323.785156 C 224.3125 324.078125 222.328125 324.324219 220.339844 324.519531 C 218.351562 324.714844 216.363281 324.863281 214.367188 324.960938 C 212.371094 325.058594 210.375 325.105469 208.378906 325.105469 C 206.378906 325.105469 204.382812 325.058594 202.386719 324.960938 C 200.394531 324.863281 198.402344 324.714844 196.414062 324.519531 C 194.425781 324.324219 192.441406 324.078125 190.46875 323.785156 C 188.492188 323.492188 186.523438 323.152344 184.5625 322.761719 C 182.605469 322.371094 180.65625 321.933594 178.71875 321.449219 C 176.78125 320.964844 174.855469 320.429688 172.945312 319.851562 C 171.03125 319.273438 169.136719 318.644531 167.257812 317.972656 C 165.375 317.300781 163.511719 316.582031 161.667969 315.816406 C 159.820312 315.050781 157.996094 314.242188 156.1875 313.386719 C 154.382812 312.535156 152.601562 311.636719 150.839844 310.695312 C 149.078125 309.753906 147.339844 308.769531 145.625 307.742188 C 143.910156 306.714844 142.222656 305.648438 140.5625 304.539062 C 138.902344 303.425781 137.269531 302.277344 135.664062 301.085938 C 134.0625 299.898438 132.488281 298.667969 130.941406 297.402344 C 129.398438 296.136719 127.886719 294.832031 126.40625 293.488281 C 124.925781 292.148438 123.480469 290.769531 122.066406 289.359375 C 120.65625 287.945312 119.277344 286.5 117.9375 285.019531 C 116.59375 283.539062 115.289062 282.027344 114.023438 280.484375 C 112.753906 278.9375 111.527344 277.363281 110.335938 275.761719 C 109.148438 274.15625 107.996094 272.523438 106.886719 270.863281 C 105.777344 269.203125 104.707031 267.515625 103.683594 265.800781 C 102.65625 264.089844 101.671875 262.351562 100.730469 260.589844 C 99.789062 258.828125 98.890625 257.042969 98.035156 255.238281 C 97.179688 253.433594 96.371094 251.605469 95.609375 249.761719 C 94.84375 247.914062 94.125 246.054688 93.453125 244.171875 C 92.777344 242.292969 92.152344 240.394531 91.570312 238.484375 C 90.992188 236.574219 90.460938 234.648438 89.972656 232.710938 C 89.488281 230.773438 89.050781 228.824219 88.660156 226.863281 C 88.273438 224.90625 87.929688 222.9375 87.636719 220.960938 C 87.34375 218.988281 87.101562 217.003906 86.902344 215.015625 C 86.707031 213.027344 86.5625 211.039062 86.464844 209.042969 C 86.363281 207.046875 86.316406 205.050781 86.316406 203.054688 C 86.316406 201.054688 86.363281 199.058594 86.464844 197.066406 C 86.5625 195.070312 86.707031 193.078125 86.902344 191.089844 C 87.101562 189.101562 87.34375 187.121094 87.636719 185.144531 C 87.929688 183.167969 88.273438 181.203125 88.660156 179.242188 C 89.050781 177.28125 89.488281 175.335938 89.972656 173.398438 C 90.460938 171.460938 90.992188 169.535156 91.570312 167.625 C 92.152344 165.710938 92.777344 163.816406 93.449219 161.933594 C 94.125 160.054688 94.84375 158.191406 95.605469 156.34375 C 96.371094 154.5 97.179688 152.675781 98.035156 150.867188 C 98.890625 149.0625 99.789062 147.28125 100.730469 145.519531 C 101.671875 143.757812 102.65625 142.019531 103.683594 140.304688 C 104.707031 138.59375 105.777344 136.90625 106.886719 135.246094 C 107.996094 133.582031 109.148438 131.949219 110.335938 130.347656 C 111.527344 128.742188 112.753906 127.167969 114.023438 125.625 C 115.289062 124.078125 116.59375 122.566406 117.9375 121.085938 C 119.277344 119.605469 120.65625 118.160156 122.066406 116.75 C 123.480469 115.335938 124.925781 113.960938 126.40625 112.617188 C 127.886719 111.277344 129.398438 109.972656 130.941406 108.703125 C 132.488281 107.4375 134.0625 106.210938 135.664062 105.019531 C 137.269531 103.828125 138.902344 102.679688 140.5625 101.570312 C 142.222656 100.460938 143.910156 99.390625 145.625 98.363281 C 147.339844 97.335938 149.078125 96.355469 150.839844 95.410156 C 152.601562 94.46875 154.382812 93.574219 156.1875 92.71875 C 157.996094 91.863281 159.820312 91.054688 161.667969 90.289062 C 163.511719 89.527344 165.375 88.808594 167.257812 88.136719 C 169.136719 87.460938 171.03125 86.835938 172.945312 86.253906 C 174.855469 85.675781 176.78125 85.144531 178.71875 84.65625 C 180.65625 84.171875 182.605469 83.734375 184.5625 83.34375 C 186.523438 82.957031 188.492188 82.613281 190.46875 82.320312 C 192.441406 82.027344 194.425781 81.785156 196.414062 81.585938 C 198.402344 81.390625 200.394531 81.246094 202.386719 81.148438 C 204.382812 81.050781 206.378906 81 208.378906 81 C 210.375 81 212.371094 81.050781 214.367188 81.148438 C 216.363281 81.246094 218.351562 81.390625 220.339844 81.585938 C 222.328125 81.785156 224.3125 82.027344 226.289062 82.320312 C 228.261719 82.613281 230.230469 82.957031 232.191406 83.34375 C 234.148438 83.734375 236.097656 84.171875 238.035156 84.65625 C 239.972656 85.144531 241.898438 85.675781 243.808594 86.253906 C 245.722656 86.835938 247.617188 87.460938 249.5 88.136719 C 251.378906 88.808594 253.242188 89.527344 255.089844 90.289062 C 256.933594 91.054688 258.757812 91.863281 260.566406 92.71875 C 262.371094 93.574219 264.15625 94.46875 265.917969 95.410156 C 267.679688 96.355469 269.414062 97.335938 271.128906 98.363281 C 272.84375 99.390625 274.53125 100.460938 276.191406 101.570312 C 277.851562 102.679688 279.484375 103.828125 281.089844 105.019531 C 282.695312 106.210938 284.269531 107.4375 285.8125 108.703125 C 287.355469 109.972656 288.867188 111.277344 290.347656 112.617188 C 291.828125 113.960938 293.273438 115.335938 294.6875 116.75 C 296.101562 118.160156 297.476562 119.605469 298.820312 121.085938 C 300.160156 122.566406 301.464844 124.078125 302.730469 125.625 C 304 127.167969 305.226562 128.742188 306.417969 130.347656 C 307.609375 131.949219 308.757812 133.582031 309.867188 135.246094 C 310.976562 136.90625 312.046875 138.59375 313.074219 140.304688 C 314.101562 142.019531 315.085938 143.757812 316.027344 145.519531 C 316.96875 147.28125 317.867188 149.0625 318.71875 150.867188 C 319.574219 152.675781 320.382812 154.5 321.148438 156.34375 C 321.910156 158.191406 322.628906 160.054688 323.304688 161.933594 C 323.976562 163.816406 324.601562 165.710938 325.183594 167.625 C 325.761719 169.535156 326.296875 171.460938 326.78125 173.398438 C 327.265625 175.335938 327.703125 177.28125 328.09375 179.242188 C 328.484375 181.203125 328.824219 183.167969 329.117188 185.144531 C 329.410156 187.121094 329.65625 189.101562 329.851562 191.089844 C 330.046875 193.078125 330.195312 195.070312 330.292969 197.066406 C 330.390625 199.058594 330.4375 201.054688 330.4375 203.054688 Z M 330.4375 203.054688 " fill-opacity="1" fill-rule="nonzero"/><path fill="#600909" d="M 527.574219 81 C 423.074219 81 338.46875 165.609375 338.46875 270.09375 L 338.46875 522.21875 C 338.46875 557.09375 366.628906 585.253906 401.507812 585.253906 C 436.382812 585.253906 464.546875 557.09375 464.546875 522.21875 L 464.546875 448.398438 C 484.15625 455.40625 505.449219 459.1875 527.582031 459.1875 C 632.085938 459.1875 716.6875 374.578125 716.6875 270.09375 C 716.6875 165.609375 632.074219 81 527.574219 81 Z M 527.574219 333.128906 C 492.695312 333.128906 464.535156 304.96875 464.535156 270.09375 C 464.535156 235.21875 492.695312 207.058594 527.574219 207.058594 C 562.453125 207.058594 590.613281 235.21875 590.613281 270.09375 C 590.613281 304.96875 562.453125 333.128906 527.574219 333.128906 Z M 527.574219 333.128906 " fill-opacity="1" fill-rule="nonzero"/><path fill="#600909" d="M 716.6875 522.230469 C 716.6875 524.292969 716.585938 526.355469 716.382812 528.40625 C 716.183594 530.460938 715.878906 532.503906 715.476562 534.527344 C 715.074219 536.550781 714.574219 538.550781 713.972656 540.527344 C 713.375 542.503906 712.679688 544.445312 711.890625 546.351562 C 711.097656 548.257812 710.21875 550.121094 709.246094 551.945312 C 708.269531 553.765625 707.210938 555.53125 706.0625 557.25 C 704.917969 558.964844 703.6875 560.621094 702.378906 562.21875 C 701.070312 563.8125 699.683594 565.339844 698.222656 566.800781 C 696.765625 568.261719 695.238281 569.644531 693.640625 570.957031 C 692.042969 572.265625 690.386719 573.492188 688.671875 574.640625 C 686.957031 575.789062 685.1875 576.847656 683.367188 577.820312 C 681.546875 578.792969 679.679688 579.675781 677.773438 580.464844 C 675.867188 581.253906 673.925781 581.949219 671.949219 582.550781 C 669.972656 583.148438 667.972656 583.648438 665.949219 584.050781 C 663.921875 584.457031 661.882812 584.757812 659.828125 584.960938 C 657.773438 585.164062 655.714844 585.265625 653.648438 585.265625 C 651.585938 585.265625 649.527344 585.164062 647.472656 584.960938 C 645.417969 584.757812 643.375 584.457031 641.351562 584.050781 C 639.328125 583.648438 637.328125 583.148438 635.351562 582.550781 C 633.375 581.949219 631.433594 581.253906 629.527344 580.464844 C 627.617188 579.675781 625.753906 578.792969 623.933594 577.820312 C 622.113281 576.847656 620.34375 575.789062 618.628906 574.640625 C 616.910156 573.492188 615.253906 572.265625 613.660156 570.957031 C 612.0625 569.644531 610.535156 568.261719 609.074219 566.800781 C 607.617188 565.339844 606.230469 563.8125 604.921875 562.21875 C 603.609375 560.621094 602.382812 558.964844 601.234375 557.25 C 600.089844 555.53125 599.027344 553.765625 598.054688 551.945312 C 597.082031 550.125 596.199219 548.257812 595.410156 546.351562 C 594.621094 544.445312 593.925781 542.503906 593.324219 540.527344 C 592.726562 538.550781 592.226562 536.550781 591.824219 534.527344 C 591.421875 532.503906 591.117188 530.460938 590.914062 528.40625 C 590.714844 526.355469 590.613281 524.292969 590.613281 522.230469 C 590.613281 520.164062 590.714844 518.105469 590.914062 516.050781 C 591.117188 513.996094 591.421875 511.957031 591.824219 509.933594 C 592.226562 507.90625 592.726562 505.90625 593.328125 503.933594 C 593.925781 501.957031 594.621094 500.015625 595.410156 498.109375 C 596.199219 496.199219 597.082031 494.335938 598.054688 492.515625 C 599.027344 490.695312 600.089844 488.925781 601.234375 487.210938 C 602.382812 485.492188 603.609375 483.835938 604.921875 482.242188 C 606.230469 480.644531 607.617188 479.117188 609.074219 477.65625 C 610.535156 476.199219 612.0625 474.8125 613.660156 473.503906 C 615.253906 472.195312 616.910156 470.964844 618.628906 469.820312 C 620.34375 468.671875 622.113281 467.613281 623.933594 466.636719 C 625.753906 465.664062 627.617188 464.785156 629.527344 463.992188 C 631.433594 463.203125 633.375 462.507812 635.351562 461.910156 C 637.328125 461.308594 639.328125 460.808594 641.351562 460.40625 C 643.375 460.003906 645.417969 459.703125 647.472656 459.5 C 649.527344 459.296875 651.585938 459.195312 653.648438 459.195312 C 655.714844 459.195312 657.773438 459.296875 659.828125 459.5 C 661.882812 459.703125 663.921875 460.003906 665.949219 460.40625 C 667.972656 460.808594 669.972656 461.308594 671.949219 461.910156 C 673.925781 462.507812 675.867188 463.203125 677.773438 463.992188 C 679.679688 464.785156 681.546875 465.664062 683.367188 466.636719 C 685.1875 467.613281 686.957031 468.671875 688.671875 469.820312 C 690.386719 470.964844 692.042969 472.195312 693.640625 473.503906 C 695.238281 474.8125 696.765625 476.199219 698.222656 477.65625 C 699.683594 479.117188 701.070312 480.644531 702.378906 482.242188 C 703.6875 483.835938 704.917969 485.492188 706.0625 487.210938 C 707.210938 488.925781 708.269531 490.695312 709.246094 492.515625 C 710.21875 494.335938 711.097656 496.199219 711.890625 498.109375 C 712.679688 500.015625 713.375 501.957031 713.972656 503.933594 C 714.574219 505.90625 715.074219 507.90625 715.476562 509.933594 C 715.878906 511.957031 716.183594 513.996094 716.382812 516.050781 C 716.585938 518.105469 716.6875 520.164062 716.6875 522.230469 Z M 716.6875 522.230469 " fill-opacity="1" fill-rule="nonzero"/><path fill="#980a14" d="M 338.460938 343.914062 L 338.460938 522.230469 C 338.460938 557.105469 366.621094 585.265625 401.496094 585.265625 C 436.375 585.265625 464.535156 557.105469 464.535156 522.230469 C 464.535156 439.867188 412.003906 369.828125 338.460938 343.914062 Z M 338.460938 343.914062 " fill-opacity="1" fill-rule="nonzero"/></svg>